<?xml version="1.0" encoding="iso-8859-1"?>
<!-- Generator: Adobe Illustrator 19.0.0, SVG Export Plug-In . SVG Version: 6.00 Build 0)  -->
<svg version="1.1" id="Capa_1" xmlns="http://www.w3.org/2000/svg" xmlns:xlink="http://www.w3.org/1999/xlink" x="0px" y="0px"
	 viewBox="0 0 512 512" style="enable-background:new 0 0 512 512;" xml:space="preserve">
<g>
	
		<linearGradient id="SVGID_1_" gradientUnits="userSpaceOnUse" x1="-44.3493" y1="615.9688" x2="11.0738" y2="615.9688" gradientTransform="matrix(10.6667 0 0 -10.6667 473.6667 6826.3335)">
		<stop  offset="0" style="stop-color:#E93E3A"/>
		<stop  offset="0.359" style="stop-color:#ED683C"/>
		<stop  offset="0.702" style="stop-color:#F3903F"/>
		<stop  offset="1" style="stop-color:#FDC70C"/>
	</linearGradient>
	<path style="fill:url(#SVGID_1_);" d="M256,0C114.615,0,0,114.615,0,256s114.615,256,256,256s256-114.615,256-256
		C511.835,114.683,397.317,0.165,256,0z M256,490.667C126.397,490.667,21.333,385.603,21.333,256S126.397,21.333,256,21.333
		S490.667,126.397,490.667,256C490.52,385.542,385.542,490.52,256,490.667z"/>
	
		<linearGradient id="SVGID_2_" gradientUnits="userSpaceOnUse" x1="-44.3493" y1="615.9688" x2="11.0738" y2="615.9688" gradientTransform="matrix(10.6667 0 0 -10.6667 473.6667 6826.3335)">
		<stop  offset="0" style="stop-color:#E93E3A"/>
		<stop  offset="0.359" style="stop-color:#ED683C"/>
		<stop  offset="0.702" style="stop-color:#F3903F"/>
		<stop  offset="1" style="stop-color:#FDC70C"/>
	</linearGradient>
	<path style="fill:url(#SVGID_2_);" d="M376.683,120.235L256,240.917L135.317,120.235l-15.083,15.093L240.917,256L120.235,376.672
		l15.083,15.093L256,271.083l120.683,120.683l15.083-15.093L271.083,256l120.683-120.672L376.683,120.235z"/>
</g>
<g>
</g>
<g>
</g>
<g>
</g>
<g>
</g>
<g>
</g>
<g>
</g>
<g>
</g>
<g>
</g>
<g>
</g>
<g>
</g>
<g>
</g>
<g>
</g>
<g>
</g>
<g>
</g>
<g>
</g>
</svg>
